<svg width="100" height="140" viewBox="0 0 100 140" fill="none" xmlns="http://www.w3.org/2000/svg">
<path d="M94.7917 0.208328H5.20833C2.4469 0.208328 0.208328 2.4469 0.208328 5.20833V134.792C0.208328 137.553 2.4469 139.792 5.20833 139.792H94.7917C97.5531 139.792 99.7917 137.553 99.7917 134.792V5.20833C99.7917 2.4469 97.5531 0.208328 94.7917 0.208328Z" fill="white" stroke="black" stroke-width="0.3"/>
<path d="M90 5H10C7.23858 5 5 7.23858 5 10V130C5 132.761 7.23858 135 10 135H90C92.7614 135 95 132.761 95 130V10C95 7.23858 92.7614 5 90 5Z" fill="black" fill-opacity="0.25"/>
<path d="M50 20L25 70L50 120L75 70L50 20Z" fill="black"/>
</svg>
