<svg width="101" height="156" viewBox="0 0 101 156" fill="none" xmlns="http://www.w3.org/2000/svg">
<path d="M95.5833 16H6C3.23858 16 1 18.2386 1 21V150.583C1 153.345 3.23858 155.583 6 155.583H95.5833C98.3448 155.583 100.583 153.345 100.583 150.583V21C100.583 18.2386 98.3448 16 95.5833 16Z" fill="white" stroke="black" stroke-width="0.3"/>
<path d="M50.7917 35.7917L25.7917 85.7917L50.7917 135.792L75.7917 85.7917L50.7917 35.7917Z" fill="black"/>
<path d="M90.7917 20.7917H10.7917C8.03025 20.7917 5.79167 23.0302 5.79167 25.7917V145.792C5.79167 148.553 8.03025 150.792 10.7917 150.792H90.7917C93.5531 150.792 95.7917 148.553 95.7917 145.792V25.7917C95.7917 23.0302 93.5531 20.7917 90.7917 20.7917Z" fill="black" fill-opacity="0.25"/>
<path d="M95.5833 15H6C3.23858 15 1 17.2386 1 20V149.583C1 152.345 3.23858 154.583 6 154.583H95.5833C98.3448 154.583 100.583 152.345 100.583 149.583V20C100.583 17.2386 98.3448 15 95.5833 15Z" fill="white" stroke="black" stroke-width="0.3"/>
<path d="M50.7917 34.7917L25.7917 84.7917L50.7917 134.792L75.7917 84.7917L50.7917 34.7917Z" fill="black"/>
<path d="M90.7917 19.7917H10.7917C8.03025 19.7917 5.79167 22.0302 5.79167 24.7917V144.792C5.79167 147.553 8.03025 149.792 10.7917 149.792H90.7917C93.5531 149.792 95.7917 147.553 95.7917 144.792V24.7917C95.7917 22.0302 93.5531 19.7917 90.7917 19.7917Z" fill="black" fill-opacity="0.25"/>
<path d="M95.5833 14H6C3.23858 14 1 16.2386 1 19V148.583C1 151.345 3.23858 153.583 6 153.583H95.5833C98.3448 153.583 100.583 151.345 100.583 148.583V19C100.583 16.2386 98.3448 14 95.5833 14Z" fill="white" stroke="black" stroke-width="0.3"/>
<path d="M50.7917 33.7917L25.7917 83.7917L50.7917 133.792L75.7917 83.7917L50.7917 33.7917Z" fill="black"/>
<path d="M90.7917 18.7917H10.7917C8.03025 18.7917 5.79167 21.0302 5.79167 23.7917V143.792C5.79167 146.553 8.03025 148.792 10.7917 148.792H90.7917C93.5531 148.792 95.7917 146.553 95.7917 143.792V23.7917C95.7917 21.0302 93.5531 18.7917 90.7917 18.7917Z" fill="black" fill-opacity="0.25"/>
<path d="M95.5833 13H6C3.23858 13 1 15.2386 1 18V147.583C1 150.345 3.23858 152.583 6 152.583H95.5833C98.3448 152.583 100.583 150.345 100.583 147.583V18C100.583 15.2386 98.3448 13 95.5833 13Z" fill="white" stroke="black" stroke-width="0.3"/>
<path d="M50.7917 32.7917L25.7917 82.7917L50.7917 132.792L75.7917 82.7917L50.7917 32.7917Z" fill="black"/>
<path d="M90.7917 17.7917H10.7917C8.03025 17.7917 5.79167 20.0302 5.79167 22.7917V142.792C5.79167 145.553 8.03025 147.792 10.7917 147.792H90.7917C93.5531 147.792 95.7917 145.553 95.7917 142.792V22.7917C95.7917 20.0302 93.5531 17.7917 90.7917 17.7917Z" fill="black" fill-opacity="0.25"/>
<path d="M95.5833 12H6C3.23858 12 1 14.2386 1 17V146.583C1 149.345 3.23858 151.583 6 151.583H95.5833C98.3448 151.583 100.583 149.345 100.583 146.583V17C100.583 14.2386 98.3448 12 95.5833 12Z" fill="white" stroke="black" stroke-width="0.3"/>
<path d="M50.7917 31.7917L25.7917 81.7917L50.7917 131.792L75.7917 81.7917L50.7917 31.7917Z" fill="black"/>
<path d="M90.7917 16.7917H10.7917C8.03025 16.7917 5.79167 19.0302 5.79167 21.7917V141.792C5.79167 144.553 8.03025 146.792 10.7917 146.792H90.7917C93.5531 146.792 95.7917 144.553 95.7917 141.792V21.7917C95.7917 19.0302 93.5531 16.7917 90.7917 16.7917Z" fill="black" fill-opacity="0.25"/>
<path d="M95.5833 11H6C3.23858 11 1 13.2386 1 16V145.583C1 148.345 3.23858 150.583 6 150.583H95.5833C98.3448 150.583 100.583 148.345 100.583 145.583V16C100.583 13.2386 98.3448 11 95.5833 11Z" fill="white" stroke="black" stroke-width="0.3"/>
<path d="M50.7917 30.7917L25.7917 80.7917L50.7917 130.792L75.7917 80.7917L50.7917 30.7917Z" fill="black"/>
<path d="M90.7917 15.7917H10.7917C8.03025 15.7917 5.79167 18.0302 5.79167 20.7917V140.792C5.79167 143.553 8.03025 145.792 10.7917 145.792H90.7917C93.5531 145.792 95.7917 143.553 95.7917 140.792V20.7917C95.7917 18.0302 93.5531 15.7917 90.7917 15.7917Z" fill="black" fill-opacity="0.25"/>
<path d="M95.5833 10H6C3.23858 10 1 12.2386 1 15V144.583C1 147.345 3.23858 149.583 6 149.583H95.5833C98.3448 149.583 100.583 147.345 100.583 144.583V15C100.583 12.2386 98.3448 10 95.5833 10Z" fill="white" stroke="black" stroke-width="0.3"/>
<path d="M50.7917 29.7917L25.7917 79.7917L50.7917 129.792L75.7917 79.7917L50.7917 29.7917Z" fill="black"/>
<path d="M90.7917 14.7917H10.7917C8.03025 14.7917 5.79167 17.0302 5.79167 19.7917V139.792C5.79167 142.553 8.03025 144.792 10.7917 144.792H90.7917C93.5531 144.792 95.7917 142.553 95.7917 139.792V19.7917C95.7917 17.0302 93.5531 14.7917 90.7917 14.7917Z" fill="black" fill-opacity="0.25"/>
<path d="M95.5833 9H6C3.23858 9 1 11.2386 1 14V143.583C1 146.345 3.23858 148.583 6 148.583H95.5833C98.3448 148.583 100.583 146.345 100.583 143.583V14C100.583 11.2386 98.3448 9 95.5833 9Z" fill="white" stroke="black" stroke-width="0.3"/>
<path d="M50.7917 28.7917L25.7917 78.7917L50.7917 128.792L75.7917 78.7917L50.7917 28.7917Z" fill="black"/>
<path d="M90.7917 13.7917H10.7917C8.03025 13.7917 5.79167 16.0302 5.79167 18.7917V138.792C5.79167 141.553 8.03025 143.792 10.7917 143.792H90.7917C93.5531 143.792 95.7917 141.553 95.7917 138.792V18.7917C95.7917 16.0302 93.5531 13.7917 90.7917 13.7917Z" fill="black" fill-opacity="0.25"/>
<path d="M95.5833 8H6C3.23858 8 1 10.2386 1 13V142.583C1 145.345 3.23858 147.583 6 147.583H95.5833C98.3448 147.583 100.583 145.345 100.583 142.583V13C100.583 10.2386 98.3448 8 95.5833 8Z" fill="white" stroke="black" stroke-width="0.3"/>
<path d="M50.7917 27.7917L25.7917 77.7917L50.7917 127.792L75.7917 77.7917L50.7917 27.7917Z" fill="black"/>
<path d="M90.7917 12.7917H10.7917C8.03025 12.7917 5.79167 15.0302 5.79167 17.7917V137.792C5.79167 140.553 8.03025 142.792 10.7917 142.792H90.7917C93.5531 142.792 95.7917 140.553 95.7917 137.792V17.7917C95.7917 15.0302 93.5531 12.7917 90.7917 12.7917Z" fill="black" fill-opacity="0.25"/>
<path d="M95.5833 7H6C3.23858 7 1 9.23858 1 12V141.583C1 144.345 3.23858 146.583 6 146.583H95.5833C98.3448 146.583 100.583 144.345 100.583 141.583V12C100.583 9.23858 98.3448 7 95.5833 7Z" fill="white" stroke="black" stroke-width="0.3"/>
<path d="M50.7917 26.7917L25.7917 76.7917L50.7917 126.792L75.7917 76.7917L50.7917 26.7917Z" fill="black"/>
<path d="M90.7917 11.7917H10.7917C8.03025 11.7917 5.79167 14.0302 5.79167 16.7917V136.792C5.79167 139.553 8.03025 141.792 10.7917 141.792H90.7917C93.5531 141.792 95.7917 139.553 95.7917 136.792V16.7917C95.7917 14.0302 93.5531 11.7917 90.7917 11.7917Z" fill="black" fill-opacity="0.25"/>
<path d="M95.5833 6H6C3.23858 6 1 8.23858 1 11V140.583C1 143.345 3.23858 145.583 6 145.583H95.5833C98.3448 145.583 100.583 143.345 100.583 140.583V11C100.583 8.23858 98.3448 6 95.5833 6Z" fill="white" stroke="black" stroke-width="0.3"/>
<path d="M50.7917 25.7917L25.7917 75.7917L50.7917 125.792L75.7917 75.7917L50.7917 25.7917Z" fill="black"/>
<path d="M90.7917 10.7917H10.7917C8.03025 10.7917 5.79167 13.0302 5.79167 15.7917V135.792C5.79167 138.553 8.03025 140.792 10.7917 140.792H90.7917C93.5531 140.792 95.7917 138.553 95.7917 135.792V15.7917C95.7917 13.0302 93.5531 10.7917 90.7917 10.7917Z" fill="black" fill-opacity="0.25"/>
<path d="M95.5833 5H6C3.23858 5 1 7.23858 1 10V139.583C1 142.345 3.23858 144.583 6 144.583H95.5833C98.3448 144.583 100.583 142.345 100.583 139.583V10C100.583 7.23858 98.3448 5 95.5833 5Z" fill="white" stroke="black" stroke-width="0.3"/>
<path d="M50.7917 24.7917L25.7917 74.7917L50.7917 124.792L75.7917 74.7917L50.7917 24.7917Z" fill="black"/>
<path d="M90.7917 9.79166H10.7917C8.03025 9.79166 5.79167 12.0302 5.79167 14.7917V134.792C5.79167 137.553 8.03025 139.792 10.7917 139.792H90.7917C93.5531 139.792 95.7917 137.553 95.7917 134.792V14.7917C95.7917 12.0302 93.5531 9.79166 90.7917 9.79166Z" fill="black" fill-opacity="0.25"/>
<path d="M95.5833 4H6C3.23858 4 1 6.23858 1 9V138.583C1 141.345 3.23858 143.583 6 143.583H95.5833C98.3448 143.583 100.583 141.345 100.583 138.583V9C100.583 6.23858 98.3448 4 95.5833 4Z" fill="white" stroke="black" stroke-width="0.3"/>
<path d="M50.7917 23.7917L25.7917 73.7917L50.7917 123.792L75.7917 73.7917L50.7917 23.7917Z" fill="black"/>
<path d="M90.7917 8.79166H10.7917C8.03025 8.79166 5.79167 11.0302 5.79167 13.7917V133.792C5.79167 136.553 8.03025 138.792 10.7917 138.792H90.7917C93.5531 138.792 95.7917 136.553 95.7917 133.792V13.7917C95.7917 11.0302 93.5531 8.79166 90.7917 8.79166Z" fill="black" fill-opacity="0.25"/>
<path d="M95.5833 3H6C3.23858 3 1 5.23858 1 8V137.583C1 140.345 3.23858 142.583 6 142.583H95.5833C98.3448 142.583 100.583 140.345 100.583 137.583V8C100.583 5.23858 98.3448 3 95.5833 3Z" fill="white" stroke="black" stroke-width="0.3"/>
<path d="M50.7917 22.7917L25.7917 72.7917L50.7917 122.792L75.7917 72.7917L50.7917 22.7917Z" fill="black"/>
<path d="M90.7917 7.79166H10.7917C8.03025 7.79166 5.79167 10.0302 5.79167 12.7917V132.792C5.79167 135.553 8.03025 137.792 10.7917 137.792H90.7917C93.5531 137.792 95.7917 135.553 95.7917 132.792V12.7917C95.7917 10.0302 93.5531 7.79166 90.7917 7.79166Z" fill="black" fill-opacity="0.25"/>
<path d="M95.5833 2H6C3.23858 2 1 4.23858 1 7V136.583C1 139.345 3.23858 141.583 6 141.583H95.5833C98.3448 141.583 100.583 139.345 100.583 136.583V7C100.583 4.23858 98.3448 2 95.5833 2Z" fill="white" stroke="black" stroke-width="0.3"/>
<path d="M50.7917 21.7917L25.7917 71.7917L50.7917 121.792L75.7917 71.7917L50.7917 21.7917Z" fill="black"/>
<path d="M90.7917 6.79166H10.7917C8.03025 6.79166 5.79167 9.03023 5.79167 11.7917V131.792C5.79167 134.553 8.03025 136.792 10.7917 136.792H90.7917C93.5531 136.792 95.7917 134.553 95.7917 131.792V11.7917C95.7917 9.03023 93.5531 6.79166 90.7917 6.79166Z" fill="black" fill-opacity="0.25"/>
<path d="M95.5833 1H6C3.23858 1 1 3.23858 1 6V135.583C1 138.345 3.23858 140.583 6 140.583H95.5833C98.3448 140.583 100.583 138.345 100.583 135.583V6C100.583 3.23858 98.3448 1 95.5833 1Z" fill="white" stroke="black" stroke-width="0.3"/>
<path d="M50.7917 20.7917L25.7917 70.7917L50.7917 120.792L75.7917 70.7917L50.7917 20.7917Z" fill="black"/>
<path d="M90.7917 5.79166H10.7917C8.03025 5.79166 5.79167 8.03023 5.79167 10.7917V130.792C5.79167 133.553 8.03025 135.792 10.7917 135.792H90.7917C93.5531 135.792 95.7917 133.553 95.7917 130.792V10.7917C95.7917 8.03023 93.5531 5.79166 90.7917 5.79166Z" fill="black" fill-opacity="0.25"/>
</svg>
